<svg width="28" height="28" viewBox="0 0 28 28" fill="none" xmlns="http://www.w3.org/2000/svg">
<path id="Vector" d="M14 28C13.4333 28 12.9587 27.808 12.576 27.424C12.192 27.0413 12 26.5667 12 26V16H2C1.43333 16 0.958 15.808 0.574 15.424C0.191334 15.0413 0 14.5667 0 14C0 13.4333 0.191334 12.958 0.574 12.574C0.958 12.1913 1.43333 12 2 12H12V2C12 1.43333 12.192 0.958 12.576 0.574C12.9587 0.191334 13.4333 0 14 0C14.5667 0 15.042 0.191334 15.426 0.574C15.8087 0.958 16 1.43333 16 2V12H26C26.5667 12 27.0413 12.1913 27.424 12.574C27.808 12.958 28 13.4333 28 14C28 14.5667 27.808 15.0413 27.424 15.424C27.0413 15.808 26.5667 16 26 16H16V26C16 26.5667 15.8087 27.0413 15.426 27.424C15.042 27.808 14.5667 28 14 28Z" fill="black"/>
</svg>
